<svg width="39" height="35" viewBox="0 0 39 35" xmlns="http://www.w3.org/2000/svg">
    <path d="M9.67587 30.1676L3.7922 28.591L14.626 2.36689C14.8373 1.85534 15.3158 1.50394 15.8672 1.45537L21.1398 0.990959C21.3612 0.971462 21.5247 1.19322 21.4405 1.3989L9.67587 30.1676Z"
          fill="white"/>
    <path d="M23.399 32.2099C23.2075 32.6754 22.793 33.0121 22.2982 33.1041L16.6473 34.1552C16.4164 34.1981 16.2295 33.9686 16.3183 33.7512L28.3818 4.22512L34.2646 5.80141L23.399 32.2099Z"
          fill="white"/>
    <path d="M20.5475 26.8895L22.124 21.0059L30.9836 23.3798L28.5151 29.0244L20.5475 26.8895Z" fill="white"/>
    <path d="M6.59998 11L8.98956 5.33511L15.7005 7.1333L14.1242 13.0161L6.59998 11Z" fill="white"/>
    <path d="M15.6275 13.5503L18.0364 7.89058L31.0452 11.2444L28.4318 16.8493L15.6275 13.5503Z" fill="white"/>
    <path d="M30.7935 18.9384L33.7587 11.9714L35.3003 12.3844L34.9994 20.0654L30.7935 18.9384Z" fill="#FF3F3F"/>
    <path d="M10.424 24.1771L13.3254 18.6485L22.5199 21.1121L20.1511 26.7835L10.424 24.1771Z" fill="white"/>
    <path d="M3.18961 22.2379L3.604 14.542L7.42573 15.566L4.49311 22.5872L3.18961 22.2379Z" fill="#FF3F3F"/>
    <path d="M13.3418 12.8419L3.80001 28.5862L10.5797 12.0873L13.3418 12.8419Z" fill="url(#paint0_linear_1_14021)"/>
    <path d="M24.7479 21.6833L34.1736 5.86673L27.4411 22.4282L24.7479 21.6833Z" fill="url(#paint1_linear_1_14021)"/>
    <defs>
        <linearGradient id="paint0_linear_1_14021" x1="11.1139" y1="13.4036" x2="7.15472" y2="21.4584"
                        gradientUnits="userSpaceOnUse">
            <stop stop-color="#D8D8D8"/>
            <stop offset="1" stop-color="white" stop-opacity="0"/>
        </linearGradient>
        <linearGradient id="paint1_linear_1_14021" x1="27.1686" y1="22.1761" x2="31.6496" y2="10.1482"
                        gradientUnits="userSpaceOnUse">
            <stop stop-color="#DFDFDF"/>
            <stop offset="1" stop-color="white" stop-opacity="0"/>
        </linearGradient>
    </defs>
</svg>
